<?xml version="1.0" encoding="utf-8"?>
<!-- Svg Vector Icons : http://www.onlinewebfonts.com/icon -->
<!DOCTYPE svg PUBLIC "-//W3C//DTD SVG 1.1//EN" "http://www.w3.org/Graphics/SVG/1.1/DTD/svg11.dtd">
<svg version="1.1" xmlns="http://www.w3.org/2000/svg" xmlns:xlink="http://www.w3.org/1999/xlink" x="0px" y="0px" viewBox="0 0 1000 1000" enable-background="new 0 0 1000 1000" xml:space="preserve">
<metadata> Svg Vector Icons : http://www.onlinewebfonts.com/icon </metadata>
<g><path d="M500,990C229.8,990,10,770.1,10,500C10,229.8,229.8,10,500,10c270.2,0,490,219.8,490,490C990,770.1,770.2,990,500,990z M500,88.4C273,88.4,88.4,273,88.4,500C88.4,726.9,273,911.7,500,911.7S911.7,726.9,911.7,500C911.7,273,727,88.4,500,88.4z"/><path d="M500,858.7c-197.8,0-358.7-161-358.7-358.7c0-197.8,160.9-358.7,358.7-358.7c197.8,0,358.7,160.9,358.7,358.7C858.7,697.8,697.8,858.7,500,858.7z M500,198.7c-166.2,0-301.3,135.1-301.3,301.3c0,166.1,135.1,301.4,301.3,301.4c166.1,0,301.4-135.3,301.4-301.4C801.4,333.8,666.1,198.7,500,198.7z"/><path d="M500,744.4c-134.8,0-244.4-109.7-244.4-244.4c0-134.8,109.6-244.4,244.4-244.4S744.4,365.2,744.4,500C744.4,634.7,634.8,744.4,500,744.4z M500,294.7c-113.2,0-205.3,92-205.3,205.3c0,113.1,92,205.3,205.3,205.3c113.2,0,205.3-92.2,205.3-205.3C705.3,386.8,613.2,294.7,500,294.7z"/><path d="M913.3,10H990v483.5h-76.7V10z"/><path d="M10,493.5h76.7V990H10V493.5z"/></g>
</svg>